<svg width="356" height="200" viewBox="0 0 356 200" fill="none" xmlns="http://www.w3.org/2000/svg">
<rect width="356" height="200" fill="white"/>
<path d="M23 104C25.7139 104 38.6512 102.83 50.9731 100.927C58.9757 99.6913 68.9859 98.4028 97.2529 93.6643C109.128 91.6737 126.262 91.7525 139.655 92.4402C152.919 93.1212 171.725 95.5401 194.236 97.3177C217.928 99.1887 239.029 100.976 253.591 101.066C263.355 101.126 271.278 99.4524 278.864 97.8116C286.758 96.2057 291.605 95.8886 294.96 95.7811C296.513 95.6735 297.762 95.4585 301 95.0003" stroke="#00E79A" stroke-opacity="0.62" stroke-width="128"/>
<path d="M130.489 154.152C130.39 154.748 129.794 154.897 128.701 154.599C127.708 154.4 126.814 153.705 126.019 152.513C125.224 150.626 124.827 148.887 124.827 147.298C124.827 145.709 124.877 143.325 124.976 140.146C125.572 136.669 126.367 132.15 127.36 126.587C128.453 120.925 129.694 114.617 131.085 107.664C132.575 100.611 134.164 93.2607 135.853 85.612C137.045 81.6387 137.989 78.013 138.684 74.735C139.479 71.3577 140.075 68.626 140.472 66.54C140.869 64.454 141.068 63.411 141.068 63.411C141.068 63.113 140.77 63.262 140.174 63.858C139.677 64.3547 139.181 64.9507 138.684 65.646C138.187 66.3413 137.989 66.8877 138.088 67.285C138.088 67.285 137.74 67.7817 137.045 68.775C136.35 69.7683 135.456 71.1093 134.363 72.798C133.37 73.7913 132.178 75.778 130.787 78.758C129.396 81.738 127.857 84.5193 126.168 87.102C124.579 90.082 122.89 93.3103 121.102 96.787C119.314 100.164 117.725 102.995 116.334 105.28C115.44 106.571 114.546 108.061 113.652 109.75C112.758 111.439 112.212 112.531 112.013 113.028C111.616 114.121 110.92 115.462 109.927 117.051C108.934 118.541 107.841 120.031 106.649 121.521C106.053 122.415 105.457 123.359 104.861 124.352C104.265 125.246 103.768 126.041 103.371 126.736C103.073 127.332 102.924 127.63 102.924 127.63C102.924 127.928 102.427 128.822 101.434 130.312C100.54 131.802 99.3977 133.441 98.007 135.229C96.7157 137.017 95.474 138.557 94.282 139.848C90.8053 143.523 88.024 145.709 85.938 146.404C83.852 147 81.5177 146.106 78.935 143.722C77.6437 142.133 76.7 140.345 76.104 138.358C75.508 136.272 75.2597 133.739 75.359 130.759C75.4583 127.68 75.806 123.855 76.402 119.286C77.0973 115.809 77.743 112.333 78.339 108.856C78.935 105.28 79.4813 101.952 79.978 98.873C80.574 95.6943 81.0707 93.0123 81.468 90.827C81.9647 88.6417 82.362 87.2013 82.66 86.506C82.8587 84.5193 82.809 83.4267 82.511 83.228C82.213 83.0293 81.617 83.6253 80.723 85.016C80.3257 85.7113 79.2827 87.4497 77.594 90.231C75.9053 92.913 73.9187 96.2407 71.634 100.214C69.4487 104.187 67.2633 108.508 65.078 113.177C61.0053 120.726 57.628 126.984 54.946 131.951C52.3633 136.818 50.2773 140.692 48.688 143.573C47.198 146.454 46.1053 148.589 45.41 149.98C44.7147 151.371 44.218 152.314 43.92 152.811C43.622 153.308 43.3737 153.655 43.175 153.854C42.281 153.854 41.3373 153.457 40.344 152.662C39.45 151.967 38.5063 151.122 37.513 150.129C37.215 149.434 37.066 148.738 37.066 148.043C37.1653 147.348 37.513 146.354 38.109 145.063C38.705 143.672 39.599 141.586 40.791 138.805C42.0823 136.222 43.2743 133.987 44.367 132.1C45.4597 130.113 46.304 128.921 46.9 128.524C47.3967 127.729 47.8437 126.935 48.241 126.14C48.6383 125.345 48.8867 124.402 48.986 123.309C49.4827 122.713 50.2277 121.521 51.221 119.733C52.3137 117.846 53.4063 115.809 54.499 113.624C55.2937 112.333 56.287 110.644 57.479 108.558C58.7703 106.472 60.1113 104.187 61.502 101.704C62.8927 99.1213 64.1343 96.6877 65.227 94.403C69.7963 86.5557 73.6703 79.95 76.849 74.586C80.0277 69.1227 82.4117 65.646 84.001 64.156C84.4977 63.6593 84.9943 62.964 85.491 62.07C86.087 61.176 86.385 60.3813 86.385 59.686C86.385 57.6 86.7823 55.7127 87.577 54.024C88.471 52.236 89.365 51.4413 90.259 51.64C91.2523 51.64 92.1463 51.7393 92.941 51.938C93.7357 52.1367 94.58 52.7823 95.474 53.875C96.2687 55.067 96.964 56.259 97.56 57.451C98.156 58.643 98.1063 61.027 97.411 64.603C97.411 65.9937 97.262 67.583 96.964 69.371C96.666 71.0597 96.368 72.649 96.07 74.139C95.8713 75.5297 95.7223 76.6223 95.623 77.417C94.3317 81.291 93.1397 85.6617 92.047 90.529C90.9543 95.297 89.961 100.164 89.067 105.131C88.173 109.998 87.428 114.568 86.832 118.839C86.236 123.011 85.8387 126.488 85.64 129.269C85.5407 131.951 85.64 133.491 85.938 133.888C86.6333 134.285 87.2293 134.335 87.726 134.037C88.2227 133.739 89.067 132.448 90.259 130.163C90.9543 128.971 91.898 127.531 93.09 125.842C94.3813 124.054 95.623 122.415 96.815 120.925C97.6097 119.534 98.8513 117.448 100.54 114.667C102.229 111.886 104.364 108.31 106.947 103.939C109.629 99.5683 112.808 94.254 116.483 87.996C120.258 81.6387 124.529 74.288 129.297 65.944C131.582 62.4673 133.717 59.09 135.704 55.812C137.79 52.4347 139.479 50.2493 140.77 49.256C142.161 47.9647 143.601 47.6667 145.091 48.362C146.581 48.958 147.872 50.2493 148.965 52.236C150.157 54.2227 150.803 56.706 150.902 59.686C151.001 61.0767 150.803 63.3117 150.306 66.391C149.909 69.4703 149.263 72.9967 148.369 76.97C147.475 80.844 146.333 84.867 144.942 89.039C144.644 90.7277 144.147 92.8633 143.452 95.446C142.856 97.9293 142.161 100.512 141.366 103.194C140.571 105.876 139.777 108.409 138.982 110.793C138.485 114.071 137.889 117.299 137.194 120.478C136.598 123.657 136.399 125.792 136.598 126.885C135.704 128.474 135.108 130.759 134.81 133.739C134.512 136.719 134.363 139.798 134.363 142.977C133.966 146.851 133.668 149.583 133.469 151.172C133.27 152.761 132.923 153.506 132.426 153.407C131.135 153.01 130.489 153.258 130.489 154.152ZM187.515 152.364C185.926 152.463 183.741 152.463 180.959 152.364C178.178 152.265 175.248 151.768 172.168 150.874C169.188 150.079 166.506 148.639 164.122 146.553C161.738 144.368 160.149 141.288 159.354 137.315C158.162 131.752 157.914 125.693 158.609 119.137C159.305 112.581 160.497 106.124 162.185 99.767C162.682 97.979 163.626 95.6943 165.016 92.913C166.407 90.0323 168.046 86.953 169.933 83.675C171.92 80.397 173.956 77.2183 176.042 74.139C178.128 70.9603 180.065 68.2287 181.853 65.944C183.145 64.454 184.684 62.815 186.472 61.027C188.26 59.239 190.098 57.5503 191.985 55.961C193.873 54.2723 195.611 52.832 197.2 51.64C198.79 50.448 199.982 49.703 200.776 49.405C202.167 48.6103 203.409 48.213 204.501 48.213C205.594 48.1137 207.183 48.3123 209.269 48.809C210.66 48.9083 212.1 49.405 213.59 50.299C215.08 51.0937 216.372 51.9877 217.464 52.981C218.656 53.9743 219.302 54.918 219.401 55.812C219.501 56.408 220.593 56.3583 222.679 55.663C223.375 54.8683 224.02 54.3717 224.616 54.173C225.312 53.9743 225.908 53.9743 226.404 54.173C226.901 54.3717 227.199 54.8187 227.298 55.514C226.702 56.408 226.802 57.2027 227.596 57.898C227.894 57.7987 227.944 58.2953 227.745 59.388C227.547 60.3813 227.199 61.5733 226.702 62.964C226.206 64.3547 225.61 65.5963 224.914 66.689C224.914 66.689 224.815 66.9373 224.616 67.434C224.517 67.9307 224.467 68.179 224.467 68.179C224.666 68.6757 224.567 69.1723 224.169 69.669C223.772 70.1657 223.424 70.6127 223.126 71.01C222.828 71.5067 222.431 72.4007 221.934 73.692C221.537 74.884 221.14 76.2747 220.742 77.864C220.345 79.354 219.997 80.7447 219.699 82.036C219.501 83.228 219.401 84.0723 219.401 84.569C219.6 85.2643 219.302 85.6617 218.507 85.761C217.713 85.761 216.471 85.463 214.782 84.867C212.597 84.0723 211.206 83.0293 210.61 81.738C210.114 80.4467 210.412 77.9137 211.504 74.139C212.895 69.5697 213.69 66.1923 213.888 64.007C214.087 61.8217 213.491 60.1827 212.1 59.09C211.604 58.196 210.511 57.6497 208.822 57.451C207.134 57.153 205.743 57.3517 204.65 58.047C203.16 58.643 201.124 60.282 198.541 62.964C195.959 65.5467 193.277 68.5267 190.495 71.904C187.714 75.2813 185.231 78.5097 183.045 81.589C178.476 87.9463 174.9 94.552 172.317 101.406C169.834 108.26 168.394 114.866 167.996 121.223C167.599 127.58 168.245 133.342 169.933 138.507C170.132 138.904 170.728 139.749 171.721 141.04C172.715 142.331 173.509 143.176 174.105 143.573C177.284 144.268 181.754 144.318 187.515 143.722C191.787 142.927 194.916 141.735 196.902 140.146C198.988 138.557 200.975 136.371 202.862 133.59C203.955 132.001 205.048 130.958 206.14 130.461C207.332 129.964 208.326 130.014 209.12 130.61C210.014 131.206 210.561 132.398 210.759 134.186C210.759 134.683 210.312 135.726 209.418 137.315C208.624 138.805 207.68 140.245 206.587 141.636C205.594 143.027 204.799 143.821 204.203 144.02C203.806 144.119 203.558 144.219 203.458 144.318C203.458 144.417 203.508 144.715 203.607 145.212C203.607 145.609 202.962 146.205 201.67 147C200.379 147.795 198.79 148.589 196.902 149.384C195.114 150.278 193.326 150.973 191.538 151.47C189.85 152.066 188.509 152.364 187.515 152.364ZM229.298 155.344C228.801 155.046 228.056 154.798 227.063 154.599C226.169 154.4 225.374 154.053 224.679 153.556C223.984 153.159 223.586 152.513 223.487 151.619C223.388 151.321 223.288 151.023 223.189 150.725C223.189 150.427 223.338 149.732 223.636 148.639C223.934 147.646 224.381 145.957 224.977 143.573C225.573 141.586 226.07 139.848 226.467 138.358C226.964 136.868 227.212 136.024 227.212 135.825C227.609 136.024 228.007 135.924 228.404 135.527C228.801 135.13 229 134.087 229 132.398C228.901 132.001 229 131.355 229.298 130.461C229.695 129.567 230.142 128.673 230.639 127.779C230.639 127.481 230.738 126.537 230.937 124.948C231.235 123.359 231.533 121.769 231.831 120.18C233.222 115.511 234.662 111.389 236.152 107.813C237.741 104.237 238.933 101.654 239.728 100.065C239.728 99.8663 239.877 99.32 240.175 98.426C240.473 97.532 240.821 96.638 241.218 95.744C241.615 94.7507 241.913 94.105 242.112 93.807C242.211 92.913 242.46 91.7707 242.857 90.38C243.354 88.89 243.9 87.4993 244.496 86.208C245.191 84.8173 245.837 83.8737 246.433 83.377C246.433 82.781 246.681 81.7877 247.178 80.397C247.675 79.0063 248.271 77.566 248.966 76.076C249.661 74.4867 250.307 73.1457 250.903 72.053C251.499 70.9603 251.847 70.414 251.946 70.414C251.946 70.414 251.996 70.116 252.095 69.52C252.294 68.924 252.89 67.9803 253.883 66.689C253.883 66.689 253.933 66.1923 254.032 65.199C254.231 64.2057 254.727 63.411 255.522 62.815C255.919 61.325 256.168 60.3317 256.267 59.835C256.366 59.239 256.217 58.8417 255.82 58.643C254.926 56.0603 255.721 54.7193 258.204 54.62C258.8 54.62 259.495 53.7757 260.29 52.087C260.787 51.193 261.73 50.6467 263.121 50.448C264.611 50.2493 266.796 49.852 269.677 49.256C271.564 48.958 273.352 48.66 275.041 48.362C276.73 48.064 277.574 47.915 277.574 47.915C278.965 47.915 280.753 48.0143 282.938 48.213C285.223 48.4117 287.011 48.66 288.302 48.958C291.878 50.6467 294.61 52.7823 296.497 55.365C298.384 57.9477 299.477 60.3813 299.775 62.666C299.974 63.858 299.775 65.646 299.179 68.03C298.682 70.3147 297.987 72.7483 297.093 75.331C296.298 77.9137 295.355 80.248 294.262 82.334C293.269 84.3207 292.325 85.6617 291.431 86.357C291.928 86.2577 291.729 86.804 290.835 87.996C289.941 89.188 288.799 90.4297 287.408 91.721C286.117 92.913 285.123 93.6083 284.428 93.807C284.428 93.807 284.08 94.4527 283.385 95.744C282.69 96.936 281.696 97.8797 280.405 98.575C279.213 99.2703 277.922 100.115 276.531 101.108C275.24 102.002 274.197 103.045 273.402 104.237C273.402 103.442 273.154 103.194 272.657 103.492C272.16 103.691 271.614 104.088 271.018 104.684C270.422 105.181 269.925 105.528 269.528 105.727C267.243 107.118 265.008 108.26 262.823 109.154C260.737 109.949 258.651 110.545 256.565 110.942C256.068 111.339 255.274 111.588 254.181 111.687C253.188 111.786 252.194 111.836 251.201 111.836L246.135 111.091L243.006 119.584C241.814 123.557 240.672 127.084 239.579 130.163C238.586 133.242 237.592 136.322 236.599 139.401C235.606 142.381 234.513 145.858 233.321 149.831C232.924 152.513 232.328 154.251 231.533 155.046C230.738 155.841 229.993 155.94 229.298 155.344ZM249.562 103.194C253.237 103.194 256.416 102.797 259.098 102.002C261.879 101.207 264.363 100.065 266.548 98.575C268.833 96.9857 270.968 95.2473 272.955 93.36C273.75 92.5653 274.842 91.3733 276.233 89.784C277.624 88.1947 279.064 86.506 280.554 84.718C282.143 82.8307 283.484 81.142 284.577 79.652C286.166 77.4667 287.309 75.033 288.004 72.351C288.699 69.5697 289.097 67.0367 289.196 64.752C289.295 62.368 289.047 60.6793 288.451 59.686C287.16 57.7987 285.322 56.706 282.938 56.408C280.653 56.0107 278.269 56.11 275.786 56.706C273.303 57.302 271.068 58.1463 269.081 59.239C268.584 59.4377 267.69 60.58 266.399 62.666C265.207 64.752 263.816 67.3843 262.227 70.563C260.737 73.6423 259.197 76.97 257.608 80.546C256.118 84.0227 254.727 87.4 253.436 90.678C252.145 93.8567 251.102 96.5883 250.307 98.873C249.612 101.158 249.363 102.598 249.562 103.194Z" fill="#212821"/>
</svg>
